<svg xmlns="http://www.w3.org/2000/svg" viewBox="0 0 748.85 240.32"><defs><style>.cls-1{fill:#63d04a;}.cls-1,.cls-2,.cls-3,.cls-4{stroke:#000;stroke-miterlimit:10;stroke-width:11.29px;}.cls-2{fill:#fff;}.cls-3{fill:#f7941d;}.cls-4{fill:none;}</style></defs><title>Asset 4</title><g id="Layer_2" data-name="Layer 2"><g id="Layer_1-2" data-name="Layer 1"><path d="M329.48,51.1H340.7l9.82,33.19L359.4,51.1h17.3L358.47,110H344.91l-9.82-32.73L325.27,110H311.71L293.48,51.1h17.3l8.88,33.19Z"/><path d="M435.14,51.1V110H418.78V88H398.67v22H382.31V51.1h16.36v21h20.11v-21Z"/><path d="M445.43,51.1h43.94V65.59H461.79v7.48H487v14H461.79v8.41h28.52V110H445.43Z"/><path d="M531,110q-1.31-2.34-2.94-5.52t-3.23-6.17c-1.18-2.31-2.4-4.65-3.64-7h-6.08V110H498.72V51.1h25.72a25,25,0,0,1,8.93,1.54,20.5,20.5,0,0,1,7,4.3,19.39,19.39,0,0,1,6.08,14.26,15.76,15.76,0,0,1-1.63,7.53,23.45,23.45,0,0,1-3.51,5,21.44,21.44,0,0,1-5.14,3.83L549.22,110ZM523.5,76.34a6.31,6.31,0,0,0,4.44-1.49,4.88,4.88,0,0,0,0-7.3,6.36,6.36,0,0,0-4.44-1.49h-8.41V76.34Z"/><path d="M554.83,51.1h43.94V65.59H571.19v7.48h25.25v14H571.19v8.41h28.52V110H554.83Z"/><path d="M608.12,71.2a9.71,9.71,0,0,0,2.25-1.68,14.89,14.89,0,0,0,1.68-2.06,8.16,8.16,0,0,0,1.22-2.8,8.62,8.62,0,0,1-5.33-2.58,7.35,7.35,0,0,1-2.15-5.37,7.26,7.26,0,0,1,.65-3,8.48,8.48,0,0,1,1.73-2.53,8.67,8.67,0,0,1,2.53-1.73,7.41,7.41,0,0,1,6.07,0A8.3,8.3,0,0,1,621,53.67a7.42,7.42,0,0,1,.65,3A19.1,19.1,0,0,1,620,65.12a21.8,21.8,0,0,1-3.74,5.61,24.16,24.16,0,0,1-5.33,4.21Z"/><path d="M627.29,67.46A15.86,15.86,0,0,1,633,55.3a21.4,21.4,0,0,1,6.78-3.74,27.55,27.55,0,0,1,9.07-1.4,27.9,27.9,0,0,1,9.49,1.54,22.24,22.24,0,0,1,7.25,4.21,18.21,18.21,0,0,1,4.58,6.27,18.65,18.65,0,0,1,1.59,7.62l-15.9,1.4A5.68,5.68,0,0,0,654,66.76a6.2,6.2,0,0,0-4.26-1.64,4.82,4.82,0,0,0-3.41,1.17,3.47,3.47,0,0,0-1.26,2.57,3,3,0,0,0,2.06,2.76,36.77,36.77,0,0,0,5.09,1.92q3,.93,6.64,2.1a25.51,25.51,0,0,1,6.64,3.27,18.61,18.61,0,0,1,5.1,5.38,15.6,15.6,0,0,1,2,8.42,15.4,15.4,0,0,1-1.59,6.82,17.47,17.47,0,0,1-4.58,5.8,23.59,23.59,0,0,1-7.25,4.07,27.62,27.62,0,0,1-9.49,1.54A29.07,29.07,0,0,1,640,109.4a21.1,21.1,0,0,1-7.34-4.3A19.59,19.59,0,0,1,628,98.69a19,19,0,0,1-1.63-7.85l15.89-1.41A6.39,6.39,0,0,0,648.8,96a6.51,6.51,0,0,0,4.63-1.4,4,4,0,0,0,1.45-2.81,3.12,3.12,0,0,0-2.06-2.8,35.69,35.69,0,0,0-5.1-2c-2-.66-4.24-1.41-6.64-2.25a27.56,27.56,0,0,1-6.63-3.36,18.05,18.05,0,0,1-5.1-5.43A15.82,15.82,0,0,1,627.29,67.46Z"/><path d="M314.52,160V188H298.16V129.1h15.89l16.83,35.53,16.83-35.53h15.9V188H347.25V160L334.16,188h-6.55Z"/><path d="M388.39,166.5l-20.11-37.4h17.77l10.57,21.5,10.47-21.5h17.77l-20.11,37.4V188H388.39Z"/><path d="M479.09,173a11.06,11.06,0,0,0,5.33-1.16,13.62,13.62,0,0,0,3.46-2.58,11.93,11.93,0,0,0,2.43-3.74L507.14,167a24.08,24.08,0,0,1-3.32,7.94A30.85,30.85,0,0,1,489.23,187a26.68,26.68,0,0,1-10.14,1.92,29.47,29.47,0,0,1-11.79-2.34,30.2,30.2,0,0,1-9.49-6.4,29,29,0,0,1-6.35-9.63,32.66,32.66,0,0,1,0-24,29,29,0,0,1,6.35-9.63,30.23,30.23,0,0,1,9.49-6.41,29.47,29.47,0,0,1,11.79-2.34,26.68,26.68,0,0,1,10.14,1.92,30.85,30.85,0,0,1,14.59,12.11,24.21,24.21,0,0,1,3.32,7.95l-16.83,1.4a12,12,0,0,0-2.43-3.74,13.6,13.6,0,0,0-3.46-2.57,11.06,11.06,0,0,0-5.33-1.17,13.27,13.27,0,0,0-5.29,1.07,13.12,13.12,0,0,0-4.3,3,14.38,14.38,0,0,0-2.9,4.58,16.5,16.5,0,0,0,0,11.69,14.61,14.61,0,0,0,2.9,4.58,13.12,13.12,0,0,0,9.59,4.06Z"/><path d="M567,129.1V188H550.62V166h-20.1v22H514.15V129.1h16.37v21h20.1v-21Z"/><path d="M593.63,188H577.27V129.1h16.36Z"/><path d="M603.92,129.1h16.36v43H646V188H603.92Z"/><path d="M652.07,129.1h21.51a31.41,31.41,0,0,1,12,2.24,28.84,28.84,0,0,1,9.49,6.17,28,28,0,0,1,6.21,9.35,31.62,31.62,0,0,1,0,23.43,28.11,28.11,0,0,1-6.21,9.3,28.68,28.68,0,0,1-9.49,6.17,31.41,31.41,0,0,1-12,2.25H652.07ZM673.58,173a13.12,13.12,0,0,0,9.58-4.06,14.43,14.43,0,0,0,2.9-4.58,16.36,16.36,0,0,0,0-11.69,14.21,14.21,0,0,0-2.9-4.58,13,13,0,0,0-4.3-3,13.22,13.22,0,0,0-5.28-1.07h-5.15v29Z"/><path d="M748.85,145a13,13,0,0,1-.94,5.24,15.61,15.61,0,0,1-2.38,3.88,28.51,28.51,0,0,1-3.13,3.18,37,37,0,0,0-3.18,3.08A19.68,19.68,0,0,0,736.6,164a11.39,11.39,0,0,0-1.31,4.82h-15a18.79,18.79,0,0,1,1.82-8.84,25.09,25.09,0,0,1,4-5.66c1.47-1.49,2.81-2.79,4-3.88a4.78,4.78,0,0,0,1.83-3.6q0-3.74-4.21-3.74a4.27,4.27,0,0,0-3.23,1.64,6.48,6.48,0,0,0-1.45,4.44l-15.89-1.87A20.28,20.28,0,0,1,709,139.8a18.69,18.69,0,0,1,4.34-6.07,20.49,20.49,0,0,1,6.55-4.07,22.51,22.51,0,0,1,8.37-1.5,24.57,24.57,0,0,1,8.55,1.4,21,21,0,0,1,6.46,3.7,16.26,16.26,0,0,1,4.11,5.33A14.62,14.62,0,0,1,748.85,145Zm-13.09,36a7.23,7.23,0,0,1-.66,3,8.3,8.3,0,0,1-1.73,2.53,8.62,8.62,0,0,1-2.52,1.73,7.43,7.43,0,0,1-6.08,0,8.49,8.49,0,0,1-2.52-1.73,8.3,8.3,0,0,1-1.73-2.53,7.33,7.33,0,0,1,0-6.08,8.36,8.36,0,0,1,4.25-4.25,7.33,7.33,0,0,1,6.08,0A8.36,8.36,0,0,1,735.1,178,7.27,7.27,0,0,1,735.76,181Z"/><path class="cls-1" d="M264.18,97.54A91.9,91.9,0,1,0,104.34,159.4l67.95,72.65,67.94-72.65A91.51,91.51,0,0,0,264.18,97.54Z"/><circle class="cls-2" cx="172.29" cy="97.54" r="68.38"/><circle class="cls-3" cx="66.38" cy="66.38" r="60.73"/><path d="M91.07,48.78a19,19,0,0,1-1.33,7.53,22.23,22.23,0,0,1-3.42,5.58,56.2,56.2,0,0,1-4.44,4.69,51.3,51.3,0,0,0-4.43,4.75A22.62,22.62,0,0,0,74,77.09a20.37,20.37,0,0,0-1.33,7.79H58.13A32.17,32.17,0,0,1,59.46,75a29.37,29.37,0,0,1,3.3-7A27,27,0,0,1,67,62.9q2.28-2.09,4.24-4A23.18,23.18,0,0,0,74.54,55,8.84,8.84,0,0,0,75.87,50a9.21,9.21,0,0,0-2.66-6.9q-2.67-2.6-7.48-2.6a9.42,9.42,0,0,0-7.22,3.17q-2.91,3.16-2.91,8.87H40.4a32.94,32.94,0,0,1,2.15-10.77,23.71,23.71,0,0,1,5.26-8.17,23.28,23.28,0,0,1,7.92-5.19,26.41,26.41,0,0,1,10-1.84,30.89,30.89,0,0,1,10.64,1.71,24.55,24.55,0,0,1,8,4.62,19,19,0,0,1,5,7A22.75,22.75,0,0,1,91.07,48.78ZM57.5,99.45a8.24,8.24,0,0,1,16.47,0,8.15,8.15,0,0,1-14,5.76A7.86,7.86,0,0,1,57.5,99.45Z"/><circle class="cls-4" cx="172.29" cy="85.46" r="27.37"/><path class="cls-4" d="M132,155.51v-23A14.57,14.57,0,0,1,146.47,118H198.1a14.57,14.57,0,0,1,14.52,14.52v23.34"/></g></g></svg>